<?xml version="1.0" encoding="UTF-8"?><svg id="Layer_1" xmlns="http://www.w3.org/2000/svg" viewBox="0 0 434.69 445.64"><defs><style>.cls-1{fill:#efefef;}</style></defs><path class="cls-1" d="m65.68,316.15c-32.08,0-58.33,26.26-58.33,58.34s26.25,58.33,58.33,58.33,58.34-26.25,58.34-58.33-26.26-58.34-58.34-58.34h0Z"/><path class="cls-1" d="m217.35,316.15c-32.08,0-58.33,26.25-58.33,58.33s26.25,58.33,58.33,58.33,58.33-26.25,58.33-58.33-26.25-58.33-58.33-58.33Z"/><path class="cls-1" d="m369.02,316.15c-32.08,0-58.34,26.26-58.34,58.34s26.26,58.33,58.34,58.33,58.33-26.25,58.33-58.33-26.25-58.34-58.33-58.34Z"/><path class="cls-1" d="m65.68,164.49c-32.08,0-58.33,26.25-58.33,58.33s26.25,58.33,58.33,58.33,58.34-26.25,58.34-58.33-26.26-58.33-58.34-58.33h0Z"/><path class="cls-1" d="m217.35,164.49c-32.08,0-58.33,26.25-58.33,58.33s26.25,58.33,58.33,58.33,58.33-26.25,58.33-58.33-26.25-58.33-58.33-58.33h0Z"/><path class="cls-1" d="m369.02,164.49c-32.08,0-58.33,26.25-58.33,58.33s26.25,58.33,58.33,58.33,58.33-26.25,58.33-58.33-26.25-58.33-58.33-58.33h0Z"/><path class="cls-1" d="m65.68,12.82c-32.08,0-58.33,26.25-58.33,58.33s26.25,58.34,58.33,58.34,58.34-26.26,58.34-58.34S97.75,12.82,65.68,12.82h0Z"/><path class="cls-1" d="m217.35,12.82c-32.08,0-58.33,26.25-58.33,58.33s26.25,58.34,58.33,58.34,58.33-26.26,58.33-58.34-26.25-58.33-58.33-58.33Z"/><path class="cls-1" d="m369.02,12.82c-32.08,0-58.34,26.25-58.34,58.33s26.26,58.34,58.34,58.34,58.33-26.26,58.33-58.34-26.25-58.33-58.33-58.33Z"/></svg>